# xmcd CD database file
# Copyright (C) 1996 Ti Kan
#
# Track frame offsets:
#	187
#	11317
#	23580
#	35345
#	46140
#	58922
#	71070
#	82857
#	93935
#	107495
#	119912
#	129860
#	140165
#	152352
#	163542
#	174415
#	186917
#	198240
#	210980
#	223205
#
# Disc length: 3197 seconds
#
# Revision: 1
# Processed by: cddbd v1.4b41PL1 Copyright (c) Steve Scherf et al.
# Submitted via: EasyCD 2.21 - (C) 1996 Greg Leichner
#
DISCID=090c7b14
DTITLE=Eddy Arnold  - The Essential
DYEAR=1900
DGENRE=
TTITLE0=It's A Sin
TTITLE1=I'll Hold You In My Heart (Till I Can Hold You In My Arms)
TTITLE2=Don't Rob Another Man's Castle
TTITLE3=Eddy's Song
TTITLE4=I Really Don't Want To Know (Remake)
TTITLE5=Make The World Go Away
TTITLE6=Molly Darling
TTITLE7=Just Call Me Lonesome
TTITLE8=The Tip Of My Fingers
TTITLE9=Cattle Call
TTITLE10=What's He Doing In My World
TTITLE11=Anytime
TTITLE12=I Want To Go With You
TTITLE13=Sombody Like ME
TTITLE14=Take Me In Your Arms And Hold Me
TTITLE15=Lonely Again
TTITLE16=Turn The World Around 
TTITLE17=Then You Can Tell Me Goodbye
TTITLE18=That's What I Get For Loving You
TTITLE19=You Don't Miss A Thing
EXTD=
EXTT0=
EXTT1=
EXTT2=
EXTT3=
EXTT4=
EXTT5=
EXTT6=
EXTT7=
EXTT8=
EXTT9=
EXTT10=
EXTT11=
EXTT12=
EXTT13=
EXTT14=
EXTT15=
EXTT16=
EXTT17=
EXTT18=
EXTT19=
PLAYORDER=
